<svg xmlns="http://www.w3.org/2000/svg" xmlns:xlink="http://www.w3.org/1999/xlink" width="500" zoomAndPan="magnify" viewBox="0 0 375 374.999991" height="500" preserveAspectRatio="xMidYMid meet" version="1.0"><defs><g/><clipPath id="cd0d3847ef"><path d="M 121.527344 128 L 172 128 L 172 212.972656 L 121.527344 212.972656 Z M 121.527344 128 " clip-rule="nonzero"/></clipPath><clipPath id="717a15900b"><path d="M 203 128 L 254 128 L 254 212.972656 L 203 212.972656 Z M 203 128 " clip-rule="nonzero"/></clipPath><clipPath id="47cdef817c"><path d="M 151 104.972656 L 224 104.972656 L 224 211 L 151 211 Z M 151 104.972656 " clip-rule="nonzero"/></clipPath></defs><rect x="-37.5" width="450" fill="#ffffff" y="-37.499999" height="449.999989" fill-opacity="1"/><rect x="-37.5" width="450" fill="#ffffff" y="-37.499999" height="449.999989" fill-opacity="1"/><g clip-path="url(#cd0d3847ef)"><path fill="#145da0" d="M 129.023438 188.277344 L 129.003906 128.824219 C 126.710938 128.410156 124.246094 128.164062 121.535156 128.164062 L 121.535156 194.742188 C 121.535156 194.742188 151.535156 198.265625 171.726562 213.203125 C 162.394531 202.453125 148.460938 193.53125 129.023438 188.277344 " fill-opacity="1" fill-rule="nonzero"/></g><path fill="#56aeff" d="M 144.164062 175.269531 L 144.117188 119.894531 C 141.78125 118.757812 139.25 117.757812 136.472656 116.953125 L 136.472656 183.53125 C 136.472656 183.53125 160.761719 189.992188 177.429688 209.007812 C 169.777344 195.953125 158.941406 182.753906 144.164062 175.269531 " fill-opacity="1" fill-rule="nonzero"/><g clip-path="url(#717a15900b)"><path fill="#145da0" d="M 246.429688 188.277344 L 246.449219 128.824219 C 248.738281 128.410156 251.207031 128.164062 253.914062 128.164062 L 253.914062 194.742188 C 253.914062 194.742188 223.914062 198.265625 203.726562 213.203125 C 213.054688 202.453125 226.988281 193.53125 246.429688 188.277344 " fill-opacity="1" fill-rule="nonzero"/></g><path fill="#56aeff" d="M 231.285156 175.269531 L 231.332031 119.894531 C 233.667969 118.757812 236.203125 117.757812 238.980469 116.953125 L 238.980469 183.53125 C 238.980469 183.53125 214.691406 189.992188 198.023438 209.007812 C 205.675781 195.953125 216.511719 182.753906 231.285156 175.269531 " fill-opacity="1" fill-rule="nonzero"/><g clip-path="url(#47cdef817c)"><path fill="#ff8210" d="M 187.726562 142.523438 C 187.726562 142.523438 177.8125 121.714844 151.585938 104.976562 L 151.585938 171.550781 C 151.585938 171.550781 171.207031 184.5 186.523438 210.324219 L 186.523438 175.320312 C 184.457031 174.859375 182.925781 172.613281 182.925781 170.683594 C 182.925781 168.390625 185.074219 165.894531 187.726562 165.894531 C 190.375 165.894531 192.527344 168.390625 192.527344 170.683594 C 192.527344 172.613281 190.992188 174.859375 188.925781 175.320312 L 188.925781 210.324219 C 204.242188 184.5 223.867188 171.550781 223.867188 171.550781 L 223.867188 104.976562 C 197.636719 121.714844 187.726562 142.523438 187.726562 142.523438 " fill-opacity="1" fill-rule="nonzero"/></g><g fill="#212932" fill-opacity="1"><g transform="translate(108.058591, 241.996201)"><g><path d="M 3.5 -6.390625 C 3.5 -4.816406 3.820312 -3.597656 4.46875 -2.734375 C 5.125 -1.878906 6.082031 -1.453125 7.34375 -1.453125 C 8.332031 -1.453125 9.125 -1.648438 9.71875 -2.046875 C 10.3125 -2.453125 10.71875 -2.957031 10.9375 -3.5625 L 12.9375 -3 C 12.113281 -0.832031 10.25 0.25 7.34375 0.25 C 5.3125 0.25 3.765625 -0.351562 2.703125 -1.5625 C 1.640625 -2.769531 1.109375 -4.566406 1.109375 -6.953125 C 1.109375 -9.222656 1.640625 -10.960938 2.703125 -12.171875 C 3.765625 -13.378906 5.28125 -13.984375 7.25 -13.984375 C 11.289062 -13.984375 13.3125 -11.550781 13.3125 -6.6875 L 13.3125 -6.390625 Z M 10.9375 -8.140625 C 10.8125 -9.585938 10.441406 -10.640625 9.828125 -11.296875 C 9.222656 -11.960938 8.351562 -12.296875 7.21875 -12.296875 C 6.101562 -12.296875 5.222656 -11.925781 4.578125 -11.1875 C 3.929688 -10.445312 3.582031 -9.429688 3.53125 -8.140625 Z M 10.9375 -8.140625 "/></g></g></g><g fill="#212932" fill-opacity="1"><g transform="translate(122.514206, 241.996201)"><g><path d="M 17.53125 -9.125 C 17.53125 -7.28125 17.171875 -5.664062 16.453125 -4.28125 C 15.734375 -2.894531 14.710938 -1.832031 13.390625 -1.09375 C 12.066406 -0.363281 10.546875 0 8.828125 0 L 2.140625 0 L 2.140625 -17.890625 L 8.046875 -17.890625 C 11.078125 -17.890625 13.414062 -17.128906 15.0625 -15.609375 C 16.707031 -14.085938 17.53125 -11.925781 17.53125 -9.125 Z M 15.09375 -9.125 C 15.09375 -11.34375 14.484375 -13.035156 13.265625 -14.203125 C 12.054688 -15.367188 10.300781 -15.953125 8 -15.953125 L 4.5625 -15.953125 L 4.5625 -1.9375 L 8.546875 -1.9375 C 9.859375 -1.9375 11.007812 -2.222656 12 -2.796875 C 13 -3.378906 13.765625 -4.210938 14.296875 -5.296875 C 14.828125 -6.378906 15.09375 -7.65625 15.09375 -9.125 Z M 15.09375 -9.125 "/></g></g></g><g fill="#212932" fill-opacity="1"><g transform="translate(141.284931, 241.996201)"><g><path d="M 2.40625 0 L 2.40625 -17.890625 L 4.828125 -17.890625 L 4.828125 0 Z M 2.40625 0 "/></g></g></g><g fill="#212932" fill-opacity="1"><g transform="translate(148.506392, 241.996201)"><g><path d="M 1.3125 -9.03125 C 1.3125 -11.925781 2.085938 -14.171875 3.640625 -15.765625 C 5.203125 -17.359375 7.390625 -18.15625 10.203125 -18.15625 C 12.179688 -18.15625 13.789062 -17.820312 15.03125 -17.15625 C 16.269531 -16.488281 17.222656 -15.414062 17.890625 -13.9375 L 15.578125 -13.25 C 15.066406 -14.269531 14.363281 -15.007812 13.46875 -15.46875 C 12.582031 -15.9375 11.472656 -16.171875 10.140625 -16.171875 C 8.078125 -16.171875 6.5 -15.546875 5.40625 -14.296875 C 4.3125 -13.046875 3.765625 -11.289062 3.765625 -9.03125 C 3.765625 -6.769531 4.34375 -4.984375 5.5 -3.671875 C 6.664062 -2.367188 8.273438 -1.71875 10.328125 -1.71875 C 11.492188 -1.71875 12.582031 -1.894531 13.59375 -2.25 C 14.601562 -2.601562 15.421875 -3.082031 16.046875 -3.6875 L 16.046875 -6.921875 L 10.703125 -6.921875 L 10.703125 -8.953125 L 18.28125 -8.953125 L 18.28125 -2.78125 C 17.332031 -1.8125 16.171875 -1.0625 14.796875 -0.53125 C 13.421875 -0.0078125 11.929688 0.25 10.328125 0.25 C 8.453125 0.25 6.835938 -0.117188 5.484375 -0.859375 C 4.128906 -1.609375 3.09375 -2.679688 2.375 -4.078125 C 1.664062 -5.484375 1.3125 -7.132812 1.3125 -9.03125 Z M 1.3125 -9.03125 "/></g></g></g><g fill="#212932" fill-opacity="1"><g transform="translate(168.723947, 241.996201)"><g><path d="M 2.40625 0 L 2.40625 -17.890625 L 4.828125 -17.890625 L 4.828125 0 Z M 2.40625 0 "/></g></g></g><g fill="#212932" fill-opacity="1"><g transform="translate(175.945409, 241.996201)"><g><path d="M 10.0625 -16.171875 C 8.070312 -16.171875 6.523438 -15.535156 5.421875 -14.265625 C 4.328125 -12.992188 3.78125 -11.25 3.78125 -9.03125 C 3.78125 -6.832031 4.351562 -5.066406 5.5 -3.734375 C 6.644531 -2.398438 8.195312 -1.734375 10.15625 -1.734375 C 12.664062 -1.734375 14.550781 -2.972656 15.8125 -5.453125 L 17.78125 -4.46875 C 17.050781 -2.925781 16.019531 -1.753906 14.6875 -0.953125 C 13.351562 -0.148438 11.804688 0.25 10.046875 0.25 C 8.242188 0.25 6.679688 -0.125 5.359375 -0.875 C 4.046875 -1.625 3.046875 -2.691406 2.359375 -4.078125 C 1.671875 -5.472656 1.328125 -7.125 1.328125 -9.03125 C 1.328125 -11.882812 2.09375 -14.117188 3.625 -15.734375 C 5.164062 -17.347656 7.300781 -18.15625 10.03125 -18.15625 C 11.9375 -18.15625 13.523438 -17.78125 14.796875 -17.03125 C 16.078125 -16.289062 17.019531 -15.1875 17.625 -13.71875 L 15.328125 -12.96875 C 14.910156 -14.007812 14.242188 -14.800781 13.328125 -15.34375 C 12.410156 -15.894531 11.320312 -16.171875 10.0625 -16.171875 Z M 10.0625 -16.171875 "/></g></g></g><g fill="#212932" fill-opacity="1"><g transform="translate(194.716133, 241.996201)"><g><path d="M 14.8125 0 L 12.765625 -5.234375 L 4.625 -5.234375 L 2.5625 0 L 0.046875 0 L 7.34375 -17.890625 L 10.109375 -17.890625 L 17.296875 0 Z M 8.703125 -16.0625 L 8.578125 -15.703125 C 8.367188 -15.003906 8.054688 -14.101562 7.640625 -13 L 5.359375 -7.125 L 12.046875 -7.125 L 9.75 -13.03125 C 9.507812 -13.613281 9.273438 -14.269531 9.046875 -15 Z M 8.703125 -16.0625 "/></g></g></g><g fill="#212932" fill-opacity="1"><g transform="translate(212.052718, 241.996201)"><g><path d="M 9.140625 -15.90625 L 9.140625 0 L 6.734375 0 L 6.734375 -15.90625 L 0.578125 -15.90625 L 0.578125 -17.890625 L 15.28125 -17.890625 L 15.28125 -15.90625 Z M 9.140625 -15.90625 "/></g></g></g><g fill="#212932" fill-opacity="1"><g transform="translate(227.92978, 241.996201)"><g><path d="M 18.984375 -9.03125 C 18.984375 -7.15625 18.625 -5.515625 17.90625 -4.109375 C 17.1875 -2.703125 16.160156 -1.625 14.828125 -0.875 C 13.492188 -0.125 11.914062 0.25 10.09375 0.25 C 8.257812 0.25 6.675781 -0.117188 5.34375 -0.859375 C 4.007812 -1.609375 2.988281 -2.6875 2.28125 -4.09375 C 1.582031 -5.5 1.234375 -7.144531 1.234375 -9.03125 C 1.234375 -11.882812 2.015625 -14.117188 3.578125 -15.734375 C 5.140625 -17.347656 7.320312 -18.15625 10.125 -18.15625 C 11.9375 -18.15625 13.507812 -17.789062 14.84375 -17.0625 C 16.1875 -16.34375 17.210938 -15.289062 17.921875 -13.90625 C 18.628906 -12.53125 18.984375 -10.90625 18.984375 -9.03125 Z M 16.5 -9.03125 C 16.5 -11.25 15.941406 -12.992188 14.828125 -14.265625 C 13.722656 -15.535156 12.15625 -16.171875 10.125 -16.171875 C 8.070312 -16.171875 6.484375 -15.546875 5.359375 -14.296875 C 4.242188 -13.046875 3.6875 -11.289062 3.6875 -9.03125 C 3.6875 -6.78125 4.25 -5 5.375 -3.6875 C 6.507812 -2.375 8.082031 -1.71875 10.09375 -1.71875 C 12.15625 -1.71875 13.738281 -2.351562 14.84375 -3.625 C 15.945312 -4.894531 16.5 -6.695312 16.5 -9.03125 Z M 16.5 -9.03125 "/></g></g></g><g fill="#212932" fill-opacity="1"><g transform="translate(248.147335, 241.996201)"><g><path d="M 14.78125 0 L 10.125 -7.421875 L 4.5625 -7.421875 L 4.5625 0 L 2.140625 0 L 2.140625 -17.890625 L 10.546875 -17.890625 C 12.566406 -17.890625 14.125 -17.4375 15.21875 -16.53125 C 16.3125 -15.632812 16.859375 -14.378906 16.859375 -12.765625 C 16.859375 -11.441406 16.46875 -10.328125 15.6875 -9.421875 C 14.914062 -8.515625 13.851562 -7.941406 12.5 -7.703125 L 17.578125 0 Z M 14.421875 -12.75 C 14.421875 -13.789062 14.066406 -14.582031 13.359375 -15.125 C 12.648438 -15.675781 11.632812 -15.953125 10.3125 -15.953125 L 4.5625 -15.953125 L 4.5625 -9.34375 L 10.40625 -9.34375 C 11.6875 -9.34375 12.675781 -9.640625 13.375 -10.234375 C 14.070312 -10.835938 14.421875 -11.675781 14.421875 -12.75 Z M 14.421875 -12.75 "/></g></g></g></svg>